<svg xmlns="http://www.w3.org/2000/svg" width="426" height="149" viewBox="0 0 426 149" version="1.1"><path d="M 16 74 L 16 135 216 135 L 416 135 416 74 L 416 13 216 13 L 16 13 16 74 M 17 74 L 17 134 216 134 L 415 134 415 131 L 415 128 291 128 C 209 128, 167 127.661, 167 127 C 167 126.339, 209 126, 291 126 L 415 126 415 70 L 415 14 216 14 L 17 14 17 74 M 24.500 20 C 25.355 21.383, 272.645 21.383, 273.500 20 C 273.911 19.335, 232.157 19, 149 19 C 65.843 19, 24.089 19.335, 24.500 20 M 129.020 34.752 C 124.969 36.787, 121 42.228, 121 45.747 C 121 49.753, 123.976 54.822, 127.667 57.103 C 132.685 60.205, 140.891 59.437, 145.022 55.479 C 147.705 52.909, 148.964 50, 147.394 50 C 147.061 50, 145.452 51.125, 143.818 52.500 C 141.461 54.483, 139.743 55, 135.512 55 C 130.740 55, 129.894 54.663, 127.490 51.805 C 122.541 45.924, 125.846 38.367, 133.834 37.295 C 138.311 36.695, 143.526 38.322, 144.397 40.592 C 144.904 41.913, 149 42.663, 149 41.434 C 149 39.394, 146.235 36.556, 142.669 34.937 C 137.446 32.566, 133.478 32.512, 129.020 34.752 M 179 37 C 179 38.650, 178.550 40, 178 40 C 177.450 40, 177 40.900, 177 42 C 177 43.100, 177.450 44, 178 44 C 178.578 44, 179 47.167, 179 51.500 C 179 58.610, 179.117 59, 181.250 59.002 C 183.413 59.005, 183.487 58.714, 183.171 51.502 C 182.873 44.711, 183.020 44, 184.721 44 C 186.642 44, 189 42.236, 189 40.800 C 189 40.360, 187.650 40, 186 40 C 183.333 40, 183 39.667, 183 37 C 183 34.667, 182.556 34, 181 34 C 179.444 34, 179 34.667, 179 37 M 157.400 40.428 C 154.651 41.625, 152.305 44.639, 153.328 45.661 C 153.534 45.867, 155.007 45.355, 156.601 44.524 C 160.600 42.439, 164.623 42.623, 167 45 C 169.815 47.815, 169.532 49.172, 166.299 48.360 C 158.191 46.325, 151 48.506, 151 53 C 151 57.682, 161.566 60.825, 166.480 57.605 C 168.681 56.163, 169 56.147, 169 57.477 C 169 58.394, 169.904 59, 171.273 59 C 173.454 59, 173.523 58.747, 172.986 52.750 C 172.337 45.503, 170.760 42.589, 166.358 40.500 C 162.544 38.690, 161.413 38.681, 157.400 40.428 M 197.378 40.389 C 191.493 43.040, 189.556 48.307, 192.425 53.855 C 195.342 59.495, 204.645 60.853, 209.926 56.409 C 213.329 53.545, 213.149 51.082, 209.712 53.489 C 206.834 55.505, 198.610 55.467, 196.571 53.429 C 193.867 50.724, 194.799 50.214, 201.470 50.750 C 206.515 51.155, 208.511 50.895, 210.531 49.571 C 217.773 44.827, 205.911 36.546, 197.378 40.389 M 220 40.702 C 215.866 42.826, 214.795 47.011, 217.594 50.104 C 219.255 51.939, 219.252 52.095, 217.543 53.345 C 216.057 54.431, 215.948 55.033, 216.909 56.829 C 217.942 58.759, 218.898 59, 225.535 59 C 233.303 59, 234.537 59.810, 230.777 62.443 C 226.734 65.276, 219.343 64.074, 216.282 60.087 C 215.214 58.696, 215.060 58.688, 215.032 60.027 C 214.936 64.648, 222.248 68.739, 228.505 67.565 C 232.132 66.885, 237 62.047, 237 59.123 C 237 55.987, 234.783 55, 227.741 55 C 223.423 55, 221.111 54.630, 221.500 54 C 221.840 53.450, 223.696 53, 225.625 53 C 229.235 53, 232.942 51.536, 234.235 49.600 C 234.639 48.995, 234.976 47.236, 234.985 45.691 C 234.993 44.076, 235.425 43.145, 236 43.500 C 236.550 43.840, 237 43.191, 237 42.059 C 237 40.405, 236.361 39.998, 233.750 39.989 C 231.963 39.983, 228.925 39.736, 227 39.441 C 224.692 39.087, 222.308 39.517, 220 40.702 M 247.284 39.701 C 243.830 40.370, 240 45.603, 240 49.654 C 240 54.757, 244.483 59, 249.876 59 C 252.092 59, 254.978 58.512, 256.288 57.915 C 258.883 56.732, 262 52.166, 262 49.546 C 262 46.277, 258.806 41.817, 255.466 40.421 C 252.033 38.987, 251.305 38.923, 247.284 39.701 M 274.335 39.999 C 273.145 40.479, 271.696 41.689, 271.116 42.686 C 270.150 44.347, 270.058 44.310, 270.030 42.250 C 270.008 40.592, 269.408 40, 267.750 40.002 C 265.575 40.004, 265.500 40.319, 265.500 49.503 C 265.500 58.968, 265.509 59.002, 268 59.003 C 270.420 59.004, 270.489 58.817, 270.168 53.139 C 269.862 47.737, 270.054 47.103, 272.601 45.099 C 275.909 42.497, 278.148 42.711, 279.487 45.756 C 280.474 47.999, 284 48.933, 284 46.950 C 284 45.243, 281.025 40, 280.056 40 C 279.565 40, 278.564 39.803, 277.832 39.563 C 277.099 39.322, 275.526 39.518, 274.335 39.999 M 287.413 41.903 C 288.360 42.950, 290.414 47.092, 291.976 51.108 C 293.538 55.124, 295.561 58.671, 296.471 58.990 C 297.951 59.509, 297.900 59.858, 295.990 62.285 C 294.816 63.778, 293.239 65, 292.486 65 C 291.734 65, 290.840 65.450, 290.500 66 C 290.151 66.564, 290.964 67, 292.364 67 C 296.840 67, 300.352 62.783, 304.404 52.547 C 306.496 47.260, 308.869 42.274, 309.676 41.467 C 310.965 40.178, 310.680 40, 307.321 40.002 C 303.853 40.004, 303.488 40.258, 303.367 42.752 C 303.214 45.935, 299.449 55, 298.280 55 C 297.324 55, 293 44.118, 293 41.711 C 293 40.408, 292.127 40, 289.345 40 C 285.815 40, 285.749 40.065, 287.413 41.903 M 198.389 43.980 C 194.841 45.413, 194.743 47.699, 198.199 48.390 C 203.005 49.351, 205.466 49.117, 207.559 47.500 C 209.480 46.015, 209.480 45.985, 207.559 44.500 C 205.436 42.860, 201.688 42.647, 198.389 43.980 M 221.529 44.355 C 218.323 46.699, 220.291 49, 225.500 49 C 228.812 49, 230.236 48.549, 230.694 47.355 C 231.445 45.397, 228.587 43, 225.500 43 C 224.335 43, 222.548 43.610, 221.529 44.355 M 247.500 44.195 C 244.906 45.666, 244.034 47.017, 244.015 49.595 C 243.979 54.598, 252.096 56.904, 256 53 C 258.639 50.361, 258.523 48.432, 255.545 45.455 C 252.877 42.786, 250.610 42.431, 247.500 44.195 M 156.104 50.914 C 155.337 51.400, 154.985 52.519, 155.323 53.399 C 156.173 55.615, 165.229 55.634, 167.063 53.424 C 168.147 52.117, 168.126 51.692, 166.936 50.939 C 165.098 49.776, 157.927 49.760, 156.104 50.914 M 84.521 85.189 C 84.267 85.910, 83.933 91.788, 83.779 98.252 L 83.500 110.004 86.785 110.002 C 89.723 110, 89.961 109.796, 89.035 108.066 C 87.772 105.706, 87.645 89, 88.890 89 C 89.379 89, 91.688 93.748, 94.021 99.551 L 98.261 110.102 102.258 109.801 L 106.254 109.500 110.292 99.250 C 112.513 93.612, 114.746 89, 115.256 89 C 115.787 89, 116.037 93.479, 115.841 99.501 L 115.500 110.002 118 110.003 L 120.500 110.004 120 97.252 L 119.500 84.500 115.862 84.196 L 112.224 83.893 107.862 94.962 C 104.858 102.584, 103.050 105.947, 102.054 105.762 C 101.253 105.613, 98.739 100.818, 96.412 94.997 C 92.238 84.557, 92.196 84.498, 88.600 84.189 C 86.285 83.990, 84.817 84.350, 84.521 85.189 M 340 87.441 C 340 88.784, 339.550 90.160, 339 90.500 C 338.450 90.840, 338 91.991, 338 93.059 C 338 94.127, 338.450 95, 339 95 C 339.578 95, 340 98.167, 340 102.500 C 340 109.610, 340.117 110, 342.250 110.002 C 344.413 110.005, 344.487 109.714, 344.171 102.502 C 343.864 95.506, 343.980 95, 345.886 95 C 347.010 95, 348.411 94.100, 349 93 C 349.961 91.204, 349.760 91, 347.035 91 C 344.329 91, 344 90.674, 344 88 C 344 85.667, 343.556 85, 342 85 C 340.546 85, 340 85.667, 340 87.441 M 130.400 91.428 C 127.651 92.625, 125.305 95.639, 126.328 96.661 C 126.534 96.867, 128.007 96.355, 129.601 95.524 C 133.600 93.439, 137.623 93.623, 140 96 C 142.815 98.815, 142.532 100.172, 139.299 99.360 C 131.191 97.325, 124 99.506, 124 104 C 124 108.682, 134.566 111.825, 139.480 108.605 C 141.681 107.163, 142 107.147, 142 108.477 C 142 109.394, 142.904 110, 144.273 110 C 146.454 110, 146.523 109.747, 145.986 103.750 C 145.337 96.503, 143.760 93.589, 139.358 91.500 C 135.544 89.690, 134.413 89.681, 130.400 91.428 M 158.635 92.073 C 156.451 93.791, 156 93.876, 156 92.573 C 156 91.589, 155.120 91, 153.650 91 C 151.354 91, 151.311 91.169, 151.771 98.339 C 152.063 102.882, 151.802 106.502, 151.086 107.839 C 150.010 109.850, 150.158 110, 153.215 110.002 L 156.500 110.004 156.173 103.689 C 155.810 96.677, 156.794 95.047, 161.603 94.700 C 163.668 94.551, 164.713 95.141, 165.676 97 C 167.240 100.021, 167.381 105.419, 165.965 108.066 C 165.037 109.799, 165.277 110, 168.274 110 L 171.618 110 170.876 103.060 C 170.006 94.917, 168.796 92.253, 165.374 90.952 C 161.959 89.654, 161.643 89.706, 158.635 92.073 M 180.988 91.083 C 178.520 91.992, 175.403 95.737, 176.338 96.671 C 176.600 96.933, 178.184 96.439, 179.857 95.574 C 183.712 93.580, 186.948 93.575, 189.777 95.557 C 193.269 98.002, 192.681 100.102, 188.750 99.225 C 179.599 97.184, 172.998 100.079, 174.905 105.299 C 176.521 109.724, 185.299 111.580, 189.777 108.443 C 191.789 107.034, 192 107.034, 192 108.443 C 192 109.528, 192.970 110, 195.200 110 C 197.689 110, 198.133 109.733, 197.200 108.800 C 196.540 108.140, 196 105.643, 196 103.250 C 196 97.455, 193.627 93.160, 189.466 91.421 C 185.624 89.816, 184.545 89.773, 180.988 91.083 M 206.500 90.675 C 201.349 92.043, 199.193 98.050, 202.622 101.479 C 204.118 102.975, 204.099 103.209, 202.372 104.492 C 200.882 105.599, 200.725 106.252, 201.604 107.691 C 202.464 109.099, 204.239 109.567, 209.604 109.801 C 217.651 110.152, 219.238 111.143, 215.587 113.535 C 211.883 115.962, 204.266 115.047, 201.689 111.864 L 199.799 109.531 200.150 111.981 C 200.596 115.099, 206.295 119.001, 210.398 118.996 C 214.433 118.991, 219.790 115.684, 221.025 112.434 C 222.256 109.195, 222.285 109.428, 220.429 107.571 C 219.323 106.466, 216.934 106, 212.370 106 C 208.299 106, 206.112 105.627, 206.500 105 C 206.840 104.450, 208.831 104, 210.924 104 C 216.258 104, 220.328 100.688, 219.759 96.812 C 219.448 94.694, 219.692 94.052, 220.667 94.426 C 221.499 94.745, 222 94.198, 222 92.969 C 222 91.417, 221.312 90.998, 218.750 90.989 C 216.963 90.983, 213.925 90.790, 212 90.561 C 210.075 90.332, 207.600 90.383, 206.500 90.675 M 231.255 91.086 C 226.654 92.459, 224.502 96.256, 224.885 102.327 C 224.948 103.332, 226.315 105.469, 227.923 107.077 C 230.393 109.547, 231.640 110, 235.969 110 C 240.074 110, 241.578 109.513, 243.545 107.545 C 247.365 103.726, 246.623 101.458, 242.559 104.532 C 240.222 106.299, 231.880 106.480, 230.200 104.800 C 227.452 102.052, 228.909 101.261, 235.808 101.754 C 243.389 102.297, 246 100.938, 246 96.452 C 246 92.061, 237.885 89.108, 231.255 91.086 M 257.707 92.016 C 255.481 93.767, 255 93.866, 255 92.573 C 255 91.589, 254.120 91, 252.650 91 C 250.354 91, 250.311 91.169, 250.771 98.339 C 251.063 102.882, 250.802 106.502, 250.086 107.839 C 249.010 109.850, 249.158 110, 252.215 110.002 L 255.500 110.004 255.173 103.689 C 254.810 96.677, 255.794 95.047, 260.603 94.700 C 262.668 94.551, 263.713 95.141, 264.676 97 C 266.240 100.021, 266.381 105.419, 264.965 108.066 C 264.039 109.796, 264.277 110, 267.215 110.002 L 270.500 110.004 270.173 103.689 C 269.946 99.310, 270.255 97.034, 271.179 96.267 C 273.181 94.605, 277.319 93.862, 278.887 94.883 C 280.716 96.076, 281.546 105.111, 280.078 107.854 C 279.010 109.850, 279.164 110, 282.274 110 L 285.619 110 284.795 102.313 C 283.968 94.594, 282.506 91.613, 279 90.500 C 276.761 89.789, 272.013 91.599, 270.427 93.768 C 269.286 95.329, 269.051 95.291, 267.346 93.272 C 264.559 89.971, 260.911 89.496, 257.707 92.016 M 295.255 91.086 C 290.654 92.459, 288.502 96.256, 288.885 102.327 C 288.948 103.332, 290.315 105.469, 291.923 107.077 C 294.393 109.547, 295.640 110, 299.969 110 C 304.074 110, 305.578 109.513, 307.545 107.545 C 311.365 103.726, 310.623 101.458, 306.559 104.532 C 304.222 106.299, 295.880 106.480, 294.200 104.800 C 291.452 102.052, 292.909 101.261, 299.808 101.754 C 307.389 102.297, 310 100.938, 310 96.452 C 310 92.061, 301.885 89.108, 295.255 91.086 M 323.335 91 C 322.145 91.480, 320.696 92.689, 320.116 93.686 C 319.150 95.347, 319.058 95.310, 319.030 93.250 C 319.008 91.592, 318.408 91, 316.750 91 C 314.575 91, 314.500 91.315, 314.500 100.500 C 314.500 109.966, 314.509 110, 317 110.002 C 319.413 110.004, 319.489 109.804, 319.187 104.252 C 318.837 97.816, 320.020 95.465, 324.106 94.482 C 328.550 93.413, 330.283 96.208, 329.808 103.677 C 329.412 109.898, 329.447 110, 331.963 110 C 334.507 110, 334.517 109.965, 333.979 103.250 C 333.396 95.964, 332.050 92.633, 329.043 91.023 C 326.814 89.830, 326.242 89.828, 323.335 91 M 206.152 94.885 C 205.410 95.355, 204.964 96.586, 205.161 97.620 C 205.666 100.276, 214.696 100.956, 215.673 98.411 C 216.921 95.157, 209.853 92.540, 206.152 94.885 M 231.223 95.557 C 228.108 97.738, 228.446 98.805, 232.493 99.565 C 236.868 100.386, 240.901 99.423, 241.689 97.369 C 242.964 94.046, 235.280 92.715, 231.223 95.557 M 295.223 95.557 C 292.108 97.738, 292.446 98.805, 296.493 99.565 C 300.868 100.386, 304.901 99.423, 305.689 97.369 C 306.964 94.046, 299.280 92.715, 295.223 95.557 M 129.104 101.914 C 128.337 102.400, 127.985 103.519, 128.323 104.399 C 129.173 106.615, 138.229 106.634, 140.063 104.424 C 141.147 103.117, 141.126 102.692, 139.936 101.939 C 138.098 100.776, 130.927 100.760, 129.104 101.914 M 179.036 102.456 C 177.100 104.789, 178.764 106, 183.904 106 C 187.312 106, 189.178 105.461, 190.385 104.127 C 191.992 102.352, 191.960 102.222, 189.790 101.641 C 185.717 100.550, 180.276 100.962, 179.036 102.456" stroke="none" fill="#5365ef" fill-rule="evenodd"/><path d="M 0 74.502 L 0 149.005 213.250 148.752 L 426.500 148.500 426.756 74.250 L 427.013 0 213.506 0 L 0 0 0 74.502 M 0.475 75 C 0.475 115.975, 0.599 132.738, 0.750 112.250 C 0.901 91.762, 0.901 58.238, 0.750 37.750 C 0.599 17.262, 0.475 34.025, 0.475 75 M 16 74 L 16 135 216 135 L 416 135 416 74 L 416 13 216 13 L 16 13 16 74 M 17 74 L 17 134 216 134 L 415 134 415 131 L 415 128 291 128 C 209 128, 167 127.661, 167 127 C 167 126.339, 209 126, 291 126 L 415 126 415 70 L 415 14 216 14 L 17 14 17 74 M 24.500 20 C 25.355 21.383, 272.645 21.383, 273.500 20 C 273.911 19.335, 232.157 19, 149 19 C 65.843 19, 24.089 19.335, 24.500 20 M 129.020 34.752 C 124.969 36.787, 121 42.228, 121 45.747 C 121 49.753, 123.976 54.822, 127.667 57.103 C 132.685 60.205, 140.891 59.437, 145.022 55.479 C 147.705 52.909, 148.964 50, 147.394 50 C 147.061 50, 145.452 51.125, 143.818 52.500 C 141.461 54.483, 139.743 55, 135.512 55 C 130.740 55, 129.894 54.663, 127.490 51.805 C 122.541 45.924, 125.846 38.367, 133.834 37.295 C 138.311 36.695, 143.526 38.322, 144.397 40.592 C 144.904 41.913, 149 42.663, 149 41.434 C 149 39.394, 146.235 36.556, 142.669 34.937 C 137.446 32.566, 133.478 32.512, 129.020 34.752 M 179 37 C 179 38.650, 178.550 40, 178 40 C 177.450 40, 177 40.900, 177 42 C 177 43.100, 177.450 44, 178 44 C 178.578 44, 179 47.167, 179 51.500 C 179 58.610, 179.117 59, 181.250 59.002 C 183.413 59.005, 183.487 58.714, 183.171 51.502 C 182.873 44.711, 183.020 44, 184.721 44 C 186.642 44, 189 42.236, 189 40.800 C 189 40.360, 187.650 40, 186 40 C 183.333 40, 183 39.667, 183 37 C 183 34.667, 182.556 34, 181 34 C 179.444 34, 179 34.667, 179 37 M 157.400 40.428 C 154.651 41.625, 152.305 44.639, 153.328 45.661 C 153.534 45.867, 155.007 45.355, 156.601 44.524 C 160.600 42.439, 164.623 42.623, 167 45 C 169.815 47.815, 169.532 49.172, 166.299 48.360 C 158.191 46.325, 151 48.506, 151 53 C 151 57.682, 161.566 60.825, 166.480 57.605 C 168.681 56.163, 169 56.147, 169 57.477 C 169 58.394, 169.904 59, 171.273 59 C 173.454 59, 173.523 58.747, 172.986 52.750 C 172.337 45.503, 170.760 42.589, 166.358 40.500 C 162.544 38.690, 161.413 38.681, 157.400 40.428 M 197.378 40.389 C 191.493 43.040, 189.556 48.307, 192.425 53.855 C 195.342 59.495, 204.645 60.853, 209.926 56.409 C 213.329 53.545, 213.149 51.082, 209.712 53.489 C 206.834 55.505, 198.610 55.467, 196.571 53.429 C 193.867 50.724, 194.799 50.214, 201.470 50.750 C 206.515 51.155, 208.511 50.895, 210.531 49.571 C 217.773 44.827, 205.911 36.546, 197.378 40.389 M 220 40.702 C 215.866 42.826, 214.795 47.011, 217.594 50.104 C 219.255 51.939, 219.252 52.095, 217.543 53.345 C 216.057 54.431, 215.948 55.033, 216.909 56.829 C 217.942 58.759, 218.898 59, 225.535 59 C 233.303 59, 234.537 59.810, 230.777 62.443 C 226.734 65.276, 219.343 64.074, 216.282 60.087 C 215.214 58.696, 215.060 58.688, 215.032 60.027 C 214.936 64.648, 222.248 68.739, 228.505 67.565 C 232.132 66.885, 237 62.047, 237 59.123 C 237 55.987, 234.783 55, 227.741 55 C 223.423 55, 221.111 54.630, 221.500 54 C 221.840 53.450, 223.696 53, 225.625 53 C 229.235 53, 232.942 51.536, 234.235 49.600 C 234.639 48.995, 234.976 47.236, 234.985 45.691 C 234.993 44.076, 235.425 43.145, 236 43.500 C 236.550 43.840, 237 43.191, 237 42.059 C 237 40.405, 236.361 39.998, 233.750 39.989 C 231.963 39.983, 228.925 39.736, 227 39.441 C 224.692 39.087, 222.308 39.517, 220 40.702 M 247.284 39.701 C 243.830 40.370, 240 45.603, 240 49.654 C 240 54.757, 244.483 59, 249.876 59 C 252.092 59, 254.978 58.512, 256.288 57.915 C 258.883 56.732, 262 52.166, 262 49.546 C 262 46.277, 258.806 41.817, 255.466 40.421 C 252.033 38.987, 251.305 38.923, 247.284 39.701 M 274.335 39.999 C 273.145 40.479, 271.696 41.689, 271.116 42.686 C 270.150 44.347, 270.058 44.310, 270.030 42.250 C 270.008 40.592, 269.408 40, 267.750 40.002 C 265.575 40.004, 265.500 40.319, 265.500 49.503 C 265.500 58.968, 265.509 59.002, 268 59.003 C 270.420 59.004, 270.489 58.817, 270.168 53.139 C 269.862 47.737, 270.054 47.103, 272.601 45.099 C 275.909 42.497, 278.148 42.711, 279.487 45.756 C 280.474 47.999, 284 48.933, 284 46.950 C 284 45.243, 281.025 40, 280.056 40 C 279.565 40, 278.564 39.803, 277.832 39.563 C 277.099 39.322, 275.526 39.518, 274.335 39.999 M 287.413 41.903 C 288.360 42.950, 290.414 47.092, 291.976 51.108 C 293.538 55.124, 295.561 58.671, 296.471 58.990 C 297.951 59.509, 297.900 59.858, 295.990 62.285 C 294.816 63.778, 293.239 65, 292.486 65 C 291.734 65, 290.840 65.450, 290.500 66 C 290.151 66.564, 290.964 67, 292.364 67 C 296.840 67, 300.352 62.783, 304.404 52.547 C 306.496 47.260, 308.869 42.274, 309.676 41.467 C 310.965 40.178, 310.680 40, 307.321 40.002 C 303.853 40.004, 303.488 40.258, 303.367 42.752 C 303.214 45.935, 299.449 55, 298.280 55 C 297.324 55, 293 44.118, 293 41.711 C 293 40.408, 292.127 40, 289.345 40 C 285.815 40, 285.749 40.065, 287.413 41.903 M 198.389 43.980 C 194.841 45.413, 194.743 47.699, 198.199 48.390 C 203.005 49.351, 205.466 49.117, 207.559 47.500 C 209.480 46.015, 209.480 45.985, 207.559 44.500 C 205.436 42.860, 201.688 42.647, 198.389 43.980 M 221.529 44.355 C 218.323 46.699, 220.291 49, 225.500 49 C 228.812 49, 230.236 48.549, 230.694 47.355 C 231.445 45.397, 228.587 43, 225.500 43 C 224.335 43, 222.548 43.610, 221.529 44.355 M 247.500 44.195 C 244.906 45.666, 244.034 47.017, 244.015 49.595 C 243.979 54.598, 252.096 56.904, 256 53 C 258.639 50.361, 258.523 48.432, 255.545 45.455 C 252.877 42.786, 250.610 42.431, 247.500 44.195 M 156.104 50.914 C 155.337 51.400, 154.985 52.519, 155.323 53.399 C 156.173 55.615, 165.229 55.634, 167.063 53.424 C 168.147 52.117, 168.126 51.692, 166.936 50.939 C 165.098 49.776, 157.927 49.760, 156.104 50.914 M 84.521 85.189 C 84.267 85.910, 83.933 91.788, 83.779 98.252 L 83.500 110.004 86.785 110.002 C 89.723 110, 89.961 109.796, 89.035 108.066 C 87.772 105.706, 87.645 89, 88.890 89 C 89.379 89, 91.688 93.748, 94.021 99.551 L 98.261 110.102 102.258 109.801 L 106.254 109.500 110.292 99.250 C 112.513 93.612, 114.746 89, 115.256 89 C 115.787 89, 116.037 93.479, 115.841 99.501 L 115.500 110.002 118 110.003 L 120.500 110.004 120 97.252 L 119.500 84.500 115.862 84.196 L 112.224 83.893 107.862 94.962 C 104.858 102.584, 103.050 105.947, 102.054 105.762 C 101.253 105.613, 98.739 100.818, 96.412 94.997 C 92.238 84.557, 92.196 84.498, 88.600 84.189 C 86.285 83.990, 84.817 84.350, 84.521 85.189 M 340 87.441 C 340 88.784, 339.550 90.160, 339 90.500 C 338.450 90.840, 338 91.991, 338 93.059 C 338 94.127, 338.450 95, 339 95 C 339.578 95, 340 98.167, 340 102.500 C 340 109.610, 340.117 110, 342.250 110.002 C 344.413 110.005, 344.487 109.714, 344.171 102.502 C 343.864 95.506, 343.980 95, 345.886 95 C 347.010 95, 348.411 94.100, 349 93 C 349.961 91.204, 349.760 91, 347.035 91 C 344.329 91, 344 90.674, 344 88 C 344 85.667, 343.556 85, 342 85 C 340.546 85, 340 85.667, 340 87.441 M 130.400 91.428 C 127.651 92.625, 125.305 95.639, 126.328 96.661 C 126.534 96.867, 128.007 96.355, 129.601 95.524 C 133.600 93.439, 137.623 93.623, 140 96 C 142.815 98.815, 142.532 100.172, 139.299 99.360 C 131.191 97.325, 124 99.506, 124 104 C 124 108.682, 134.566 111.825, 139.480 108.605 C 141.681 107.163, 142 107.147, 142 108.477 C 142 109.394, 142.904 110, 144.273 110 C 146.454 110, 146.523 109.747, 145.986 103.750 C 145.337 96.503, 143.760 93.589, 139.358 91.500 C 135.544 89.690, 134.413 89.681, 130.400 91.428 M 158.635 92.073 C 156.451 93.791, 156 93.876, 156 92.573 C 156 91.589, 155.120 91, 153.650 91 C 151.354 91, 151.311 91.169, 151.771 98.339 C 152.063 102.882, 151.802 106.502, 151.086 107.839 C 150.010 109.850, 150.158 110, 153.215 110.002 L 156.500 110.004 156.173 103.689 C 155.810 96.677, 156.794 95.047, 161.603 94.700 C 163.668 94.551, 164.713 95.141, 165.676 97 C 167.240 100.021, 167.381 105.419, 165.965 108.066 C 165.037 109.799, 165.277 110, 168.274 110 L 171.618 110 170.876 103.060 C 170.006 94.917, 168.796 92.253, 165.374 90.952 C 161.959 89.654, 161.643 89.706, 158.635 92.073 M 180.988 91.083 C 178.520 91.992, 175.403 95.737, 176.338 96.671 C 176.600 96.933, 178.184 96.439, 179.857 95.574 C 183.712 93.580, 186.948 93.575, 189.777 95.557 C 193.269 98.002, 192.681 100.102, 188.750 99.225 C 179.599 97.184, 172.998 100.079, 174.905 105.299 C 176.521 109.724, 185.299 111.580, 189.777 108.443 C 191.789 107.034, 192 107.034, 192 108.443 C 192 109.528, 192.970 110, 195.200 110 C 197.689 110, 198.133 109.733, 197.200 108.800 C 196.540 108.140, 196 105.643, 196 103.250 C 196 97.455, 193.627 93.160, 189.466 91.421 C 185.624 89.816, 184.545 89.773, 180.988 91.083 M 206.500 90.675 C 201.349 92.043, 199.193 98.050, 202.622 101.479 C 204.118 102.975, 204.099 103.209, 202.372 104.492 C 200.882 105.599, 200.725 106.252, 201.604 107.691 C 202.464 109.099, 204.239 109.567, 209.604 109.801 C 217.651 110.152, 219.238 111.143, 215.587 113.535 C 211.883 115.962, 204.266 115.047, 201.689 111.864 L 199.799 109.531 200.150 111.981 C 200.596 115.099, 206.295 119.001, 210.398 118.996 C 214.433 118.991, 219.790 115.684, 221.025 112.434 C 222.256 109.195, 222.285 109.428, 220.429 107.571 C 219.323 106.466, 216.934 106, 212.370 106 C 208.299 106, 206.112 105.627, 206.500 105 C 206.840 104.450, 208.831 104, 210.924 104 C 216.258 104, 220.328 100.688, 219.759 96.812 C 219.448 94.694, 219.692 94.052, 220.667 94.426 C 221.499 94.745, 222 94.198, 222 92.969 C 222 91.417, 221.312 90.998, 218.750 90.989 C 216.963 90.983, 213.925 90.790, 212 90.561 C 210.075 90.332, 207.600 90.383, 206.500 90.675 M 231.255 91.086 C 226.654 92.459, 224.502 96.256, 224.885 102.327 C 224.948 103.332, 226.315 105.469, 227.923 107.077 C 230.393 109.547, 231.640 110, 235.969 110 C 240.074 110, 241.578 109.513, 243.545 107.545 C 247.365 103.726, 246.623 101.458, 242.559 104.532 C 240.222 106.299, 231.880 106.480, 230.200 104.800 C 227.452 102.052, 228.909 101.261, 235.808 101.754 C 243.389 102.297, 246 100.938, 246 96.452 C 246 92.061, 237.885 89.108, 231.255 91.086 M 257.707 92.016 C 255.481 93.767, 255 93.866, 255 92.573 C 255 91.589, 254.120 91, 252.650 91 C 250.354 91, 250.311 91.169, 250.771 98.339 C 251.063 102.882, 250.802 106.502, 250.086 107.839 C 249.010 109.850, 249.158 110, 252.215 110.002 L 255.500 110.004 255.173 103.689 C 254.810 96.677, 255.794 95.047, 260.603 94.700 C 262.668 94.551, 263.713 95.141, 264.676 97 C 266.240 100.021, 266.381 105.419, 264.965 108.066 C 264.039 109.796, 264.277 110, 267.215 110.002 L 270.500 110.004 270.173 103.689 C 269.946 99.310, 270.255 97.034, 271.179 96.267 C 273.181 94.605, 277.319 93.862, 278.887 94.883 C 280.716 96.076, 281.546 105.111, 280.078 107.854 C 279.010 109.850, 279.164 110, 282.274 110 L 285.619 110 284.795 102.313 C 283.968 94.594, 282.506 91.613, 279 90.500 C 276.761 89.789, 272.013 91.599, 270.427 93.768 C 269.286 95.329, 269.051 95.291, 267.346 93.272 C 264.559 89.971, 260.911 89.496, 257.707 92.016 M 295.255 91.086 C 290.654 92.459, 288.502 96.256, 288.885 102.327 C 288.948 103.332, 290.315 105.469, 291.923 107.077 C 294.393 109.547, 295.640 110, 299.969 110 C 304.074 110, 305.578 109.513, 307.545 107.545 C 311.365 103.726, 310.623 101.458, 306.559 104.532 C 304.222 106.299, 295.880 106.480, 294.200 104.800 C 291.452 102.052, 292.909 101.261, 299.808 101.754 C 307.389 102.297, 310 100.938, 310 96.452 C 310 92.061, 301.885 89.108, 295.255 91.086 M 323.335 91 C 322.145 91.480, 320.696 92.689, 320.116 93.686 C 319.150 95.347, 319.058 95.310, 319.030 93.250 C 319.008 91.592, 318.408 91, 316.750 91 C 314.575 91, 314.500 91.315, 314.500 100.500 C 314.500 109.966, 314.509 110, 317 110.002 C 319.413 110.004, 319.489 109.804, 319.187 104.252 C 318.837 97.816, 320.020 95.465, 324.106 94.482 C 328.550 93.413, 330.283 96.208, 329.808 103.677 C 329.412 109.898, 329.447 110, 331.963 110 C 334.507 110, 334.517 109.965, 333.979 103.250 C 333.396 95.964, 332.050 92.633, 329.043 91.023 C 326.814 89.830, 326.242 89.828, 323.335 91 M 206.152 94.885 C 205.410 95.355, 204.964 96.586, 205.161 97.620 C 205.666 100.276, 214.696 100.956, 215.673 98.411 C 216.921 95.157, 209.853 92.540, 206.152 94.885 M 231.223 95.557 C 228.108 97.738, 228.446 98.805, 232.493 99.565 C 236.868 100.386, 240.901 99.423, 241.689 97.369 C 242.964 94.046, 235.280 92.715, 231.223 95.557 M 295.223 95.557 C 292.108 97.738, 292.446 98.805, 296.493 99.565 C 300.868 100.386, 304.901 99.423, 305.689 97.369 C 306.964 94.046, 299.280 92.715, 295.223 95.557 M 129.104 101.914 C 128.337 102.400, 127.985 103.519, 128.323 104.399 C 129.173 106.615, 138.229 106.634, 140.063 104.424 C 141.147 103.117, 141.126 102.692, 139.936 101.939 C 138.098 100.776, 130.927 100.760, 129.104 101.914 M 179.036 102.456 C 177.100 104.789, 178.764 106, 183.904 106 C 187.312 106, 189.178 105.461, 190.385 104.127 C 191.992 102.352, 191.960 102.222, 189.790 101.641 C 185.717 100.550, 180.276 100.962, 179.036 102.456" stroke="none" fill="#f7f7f9" fill-rule="evenodd"/></svg>